<?xml version="1.0" standalone="no"?>
<!DOCTYPE svg PUBLIC "-//W3C//DTD SVG 1.1//EN" "http://www.w3.org/Graphics/SVG/1.1/DTD/svg11.dtd" >
<svg xmlns="http://www.w3.org/2000/svg">
<metadata>Generated by IcoMoon</metadata>
<defs>
<font id="icomoon" horiz-adv-x="1024">
<font-face units-per-em="1024" ascent="960" descent="-64" />
<missing-glyph horiz-adv-x="1024" />
<glyph unicode="&#x20;" horiz-adv-x="512" d="" />
<glyph unicode="&#xe900;" glyph-name="star" d="M1021.322 567.236c-6.742 20.735-25.133 35.415-46.805 37.376l-295.599 26.836-116.822 273.505c-8.625 20.094-28.25 33.063-50.095 33.063s-41.477-12.969-50.048-33.063l-116.822-273.505-295.646-26.836c-21.672-2-40.024-16.68-46.805-37.376-6.742-20.735-0.516-43.477 15.875-57.853l223.449-195.933-65.884-290.177c-4.82-21.336 3.461-43.399 21.164-56.196 9.516-6.914 20.696-10.367 31.915-10.367 9.641 0 19.289 2.563 27.907 7.719l254.895 152.409 254.848-152.409c18.696-11.172 42.204-10.149 59.868 2.648 17.703 12.797 25.985 34.86 21.164 56.196l-65.884 290.177 223.449 195.933c16.383 14.375 22.618 37.071 15.875 57.853z" />
<glyph unicode="&#xe901;" glyph-name="down-arrow" d="M512 256c-8.184 0-16.376 3.128-22.624 9.376l-320 320c-12.504 12.504-12.504 32.752 0 45.248s32.752 12.504 45.248 0l297.376-297.376 297.376 297.376c12.504 12.504 32.752 12.504 45.248 0s12.504-32.752 0-45.248l-320-320c-6.248-6.248-14.44-9.376-22.624-9.376z" />
<glyph unicode="&#xe902;" glyph-name="search" d="M466.752 877.598c-211.572 0-383.917-172.345-383.917-383.918 0-211.571 172.345-384.25 383.917-384.25 90.369 0 173.48 31.668 239.167 84.25l159.917-159.833c7.668-7.36 18.1-11.892 29.59-11.892 23.616 0 42.76 19.145 42.76 42.76 0 11.469-4.515 21.884-11.866 29.563l0.015-0.016-159.917 159.917c52.626 65.788 84.333 149.027 84.333 239.5 0 211.573-172.428 383.918-384 383.918zM466.752 792.264c165.454 0 298.583-133.13 298.583-298.584s-133.129-298.916-298.583-298.916-298.583 133.462-298.583 298.916 133.129 298.584 298.583 298.584z" />
<glyph unicode="&#xe903;" glyph-name="up-right-arrow" d="M288 896c-17.673 0-32-14.327-32-32v0c0-17.673 14.327-32 32-32v0h562.752l-777.376-777.376c-12.493-12.496-12.493-32.755 0-45.251 12.496-12.493 32.755-12.493 45.251 0l777.376 777.376v-562.752c0-17.673 14.327-32 32-32v0c17.673 0 32 14.327 32 32v0 640c-0.002 17.672-14.328 31.998-32 32h-640z" />
<glyph unicode="&#xe904;" glyph-name="checked" d="M994.72 820.010c-15.064 15.090-39.506 15.116-54.57 0.064l-462.986-461.764-167.044 181.426c-14.434 15.668-38.838 16.684-54.532 2.252-15.682-14.434-16.686-38.85-2.252-54.532l194.252-210.962c7.114-7.732 17.070-12.222 27.568-12.44 0.282-0.012 0.554-0.012 0.824-0.012 10.202 0 20.016 4.052 27.246 11.256l491.418 490.13c15.102 15.050 15.128 39.492 0.076 54.582zM985.406 486.594c-21.316 0-38.592-17.276-38.592-38.594 0-239.766-195.048-434.814-434.814-434.814-239.752 0-434.814 195.048-434.814 434.814 0 239.752 195.062 434.814 434.814 434.814 21.316 0 38.594 17.276 38.594 38.592 0 21.318-17.278 38.594-38.594 38.594-282.32 0-512-229.68-512-512 0-282.308 229.68-512 512-512 282.308 0 512 229.692 512 512 0 21.316-17.276 38.594-38.594 38.594z" />
<glyph unicode="&#xe905;" glyph-name="add" d="M512 80.040c-27.62 0-50 22.38-50 50v635.92c0 27.62 22.38 50 50 50s50-22.38 50-50v-635.92c0-27.62-22.38-50-50-50zM829.96 398h-635.92c-27.62 0-50 22.38-50 50s22.38 50 50 50h635.92c27.62 0 50-22.38 50-50s-22.38-50-50-50z" />
<glyph unicode="&#xe906;" glyph-name="minus" d="M853.333 448c0-23.565-19.102-42.667-42.667-42.667h-597.333c-23.564 0-42.667 19.102-42.667 42.667s19.103 42.667 42.667 42.667h597.333c23.565 0 42.667-19.102 42.667-42.667z" />
<glyph unicode="&#xe907;" glyph-name="check" d="M811.119 670.019c16.58-16.745 16.444-43.76-0.299-60.339l-387.841-383.999c-8.082-8.004-19.023-12.446-30.396-12.348-11.372 0.102-22.234 4.74-30.173 12.881l-149.76 153.6c-16.45 16.87-16.108 43.887 0.764 60.335 16.872 16.452 43.885 16.107 60.335-0.764l119.744-122.816 357.286 353.75c16.747 16.579 43.759 16.445 60.339-0.3z" />
<glyph unicode="&#xe908;" glyph-name="send" d="M1015.212 951.212c-7.804 7.804-19.264 10.692-29.834 7.522l-917.762-275.33c-40.444-12.132-67.616-48.652-67.616-90.89 0-41.652 27.97-78.734 68.022-90.178l387.578-110.736 110.736-387.578c11.444-40.050 48.526-68.022 90.194-68.022 42.222 0 78.742 27.172 90.876 67.616l275.328 917.764c3.172 10.57 0.284 22.028-7.522 29.832zM60 592.528c0 15.522 9.988 28.946 24.856 33.406l803.792 241.138-417.512-417.512-386.632 110.466c-14.426 4.124-24.504 17.482-24.504 32.502zM689.936 20.856c-4.46-14.868-17.884-24.856-33.422-24.856-15.006 0-28.364 10.076-32.486 24.504l-110.466 386.632 417.512 417.512z" />
<glyph unicode="&#xe909;" glyph-name="prev" d="M55.168 417.835l298.667-298.667c7.665-7.41 18.12-11.977 29.641-11.977 23.564 0 42.667 19.103 42.667 42.667 0 11.521-4.567 21.976-11.989 29.653l-225.823 225.823h750.336c23.564 0 42.667 19.103 42.667 42.667s-19.103 42.667-42.667 42.667v0h-750.336l225.835 225.835c8.036 7.769 13.026 18.647 13.026 30.69 0 23.564-19.103 42.667-42.667 42.667-12.043 0-22.92-4.989-30.678-13.014l-298.679-298.679c-7.718-7.721-12.492-18.386-12.492-30.165s4.774-22.445 12.492-30.165v0z" />
<glyph unicode="&#xe90a;" glyph-name="next" d="M968.832 478.165l-298.667 298.667c-7.665 7.41-18.12 11.977-29.641 11.977-23.564 0-42.667-19.103-42.667-42.667 0-11.521 4.567-21.976 11.989-29.653l225.823-225.823h-750.336c-23.564 0-42.667-19.103-42.667-42.667s19.103-42.667 42.667-42.667v0h750.336l-225.835-225.835c-8.036-7.769-13.026-18.647-13.026-30.69 0-23.564 19.103-42.667 42.667-42.667 12.043 0 22.92 4.989 30.678 13.014l298.679 298.679c7.718 7.721 12.492 18.386 12.492 30.165s-4.774 22.445-12.492 30.165v0z" />
<glyph unicode="&#xe90b;" glyph-name="arrow-right" d="M584.836 734.17c-16.661 16.662-43.678 16.662-60.339 0s-16.661-43.677 0-60.34l183.164-183.163h-494.327c-23.564 0-42.667-19.102-42.667-42.667s19.103-42.667 42.667-42.667h494.327l-183.164-183.164c-16.661-16.661-16.661-43.678 0-60.339s43.678-16.661 60.339 0l256 256c16.661 16.661 16.661 43.678 0 60.339z" />
<glyph unicode="&#xe90c;" glyph-name="checklist" d="M800.788 651.934c5.791-5.791 9.372-13.791 9.372-22.627s-3.582-16.836-9.372-22.627l-362.616-362.616c-5.791-5.791-13.791-9.372-22.627-9.372s-16.836 3.582-22.627 9.372l-169.706 169.708c-5.709 5.777-9.236 13.721-9.236 22.49 0 17.673 14.327 32 32 32 8.768 0 16.713-3.527 22.493-9.239l147.075-147.077 340 339.988c5.79 5.788 13.788 9.367 22.622 9.367s16.832-3.58 22.622-9.367v0zM1024 448c-0.001-282.769-229.231-511.999-512-511.999-141.385 0-269.384 57.307-362.038 149.961v0c-93.070 92.723-150.66 221.004-150.66 362.736 0 282.77 229.23 512 512 512 141.732 0 270.013-57.589 362.72-150.644l0.016-0.016c92.635-92.144 149.964-219.702 149.964-360.65 0-0.488-0.001-0.976-0.002-1.463v0.075zM960 448c-0.203 247.352-200.768 447.791-448.148 447.791-123.627 0-235.563-50.059-316.642-131.013l0.006 0.006c-81.072-81.072-131.216-193.072-131.216-316.784 0-247.424 200.577-448 448-448 123.712 0 235.712 50.144 316.784 131.216v0c81.055 80.627 131.218 192.24 131.218 315.57 0 0.427-0.001 0.854-0.002 1.28v-0.066z" />
<glyph unicode="&#xe90d;" glyph-name="right" d="M512 960c-282.312 0-512-229.688-512-512s229.688-512 512-512 512 229.688 512 512-229.688 512-512 512zM512 0c-247.032 0-448 200.968-448 448s200.968 448 448 448 448-200.968 448-448-200.968-448-448-448zM726.624 470.624c12.504-12.504 12.504-32.752 0-45.248l-160-160c-6.248-6.248-14.44-9.376-22.624-9.376s-16.376 3.128-22.624 9.376c-12.504 12.504-12.504 32.752 0 45.248l105.376 105.376h-306.752c-17.672 0-32 14.312-32 32s14.328 32 32 32h306.752l-105.376 105.376c-12.504 12.504-12.504 32.752 0 45.248s32.752 12.504 45.248 0z" />
<glyph unicode="&#xe90e;" glyph-name="right-1" d="M532.81 670.241c-8.685 8.692-22.776 8.692-31.475 0-8.692-8.685-8.692-22.783 0-31.475l168.571-168.571h-447.888c-12.328 0-22.328-10-22.328-22.328 0-12.335 10-22.328 22.328-22.328h447.664l-168.571-168.571c-4.182-4.168-6.531-9.839-6.531-15.741 0-5.909 2.35-11.566 6.531-15.741 4.182-4.217 9.909-6.552 15.853-6.475 5.923 0.028 11.608 2.35 15.846 6.475l206.528 206.521c4.203 4.21 6.545 9.923 6.482 15.86-0.042 5.923-2.364 11.587-6.482 15.846zM512.272 927.902c-194.158 0.035-369.211-116.914-443.51-296.296-74.286-179.389-33.195-385.861 104.138-523.111 187.438-187.438 491.321-187.438 678.752 0 187.431 187.424 187.431 491.307 0 678.745-89.81 90.32-212.011 140.97-339.379 140.662zM512.272 12.482c-240.017 0-435.378 195.368-435.378 435.385s195.361 435.378 435.378 435.378 435.385-195.361 435.385-435.378-195.368-435.385-435.385-435.385z" />
<glyph unicode="&#xe90f;" glyph-name="play-button" d="M73.143 960l877.714-512-877.714-512z" />
<glyph unicode="&#xe910;" glyph-name="like" d="M752 900c-55.566 0-106.51-17.608-151.414-52.336-43.050-33.294-71.712-75.7-88.586-106.536-16.874 30.838-45.536 73.242-88.586 106.536-44.904 34.728-95.848 52.336-151.414 52.336-155.064 0-272-126.834-272-295.028 0-181.708 145.886-306.030 366.738-494.236 37.504-31.962 80.014-68.19 124.198-106.828 5.824-5.1 13.304-7.908 21.064-7.908s15.24 2.808 21.064 7.906c44.188 38.644 86.696 74.87 124.222 106.85 220.828 188.186 366.714 312.508 366.714 494.216 0 168.194-116.936 295.028-272 295.028z" />
<glyph unicode="&#xe911;" glyph-name="thumb-up" d="M924.4 270.24c9.44-20.64 38.96-101.12-45.76-154.96 4.916-10.503 7.785-22.805 7.785-35.778 0-17.523-5.234-33.823-14.225-47.423l0.199 0.321c-33.92-50.64-123.76-75.92-268.16-75.92-85.12 3.36-211.76 3.12-327.76 33.52v496.88c17.36 29.696 49.6 52.84 67.6 78.72 72.664 101.6 132.288 200 139.12 320.080 2.080 41.28 13.76 63.52 34.96 66.16 2.88 0.24 62.32 4.16 97.68-43.52 36.8-49.6 32.4-134.4-13.28-252-9.318-22.296-14.731-48.203-14.731-75.374 0-5.316 0.207-10.584 0.614-15.796l-0.043 0.69c0.632-3.204 3.42-5.588 6.764-5.588 0.727 0 1.427 0.113 2.085 0.321l-0.049-0.013c57.6 14.32 250.88 55.6 319.040-16.72 25.6-27.28 30.88-66.96 15.68-118.16 14.133-20.349 22.579-45.575 22.579-72.774 0-31.569-11.378-60.481-30.257-82.858l0.158 0.192zM101.128 517.352h127.6c17.541 0 31.76-14.219 31.76-31.76v-509.832c0-17.541-14.219-31.76-31.76-31.76h-127.6c-17.541 0-31.76 14.219-31.76 31.76v509.832c0 17.541 14.219 31.76 31.76 31.76z" />
<glyph unicode="&#xe912;" glyph-name="date" d="M857.28 824h-112.64v16c0 17.673-14.327 32-32 32s-32-14.327-32-32v0-16h-337.28v16c0 17.673-14.327 32-32 32s-32-14.327-32-32v0-16h-112.64c-74.331-0.182-134.538-60.389-134.72-134.703v-561.297c0.182-74.331 60.389-134.538 134.703-134.72h690.577c74.331 0.182 134.538 60.389 134.72 134.703v561.297c-0.182 74.331-60.389 134.538-134.703 134.72h-0.017zM166.72 760h112.64v-16c0-17.673 14.327-32 32-32s32 14.327 32 32v0 16h337.28v-16c0-17.673 14.327-32 32-32s32 14.327 32 32v0 16h112.64c39.058 0 70.72-31.662 70.72-70.72v0-75.84h-832v75.84c0 39.058 31.662 70.72 70.72 70.72v0zM857.28 56h-690.56c-0.003 0-0.008 0-0.012 0-39.058 0-70.72 31.662-70.72 70.72 0 0.45 0.004 0.899 0.013 1.347l-0.001-0.067v421.44h832v-421.44c0.007-0.381 0.012-0.83 0.012-1.28 0-39.058-31.662-70.72-70.72-70.72-0.004 0-0.008 0-0.012 0h0.001z" />
<glyph unicode="&#xe913;" glyph-name="three-o-clock-clock" d="M511.982 960c-282.286 0-511.982-229.677-511.982-512s229.695-512 511.982-512c282.341 0 512 229.677 512 512s-229.659 512-512 512zM511.982 4.263c-244.669 0-443.719 199.050-443.719 443.737s199.068 443.737 443.719 443.737c244.706 0 443.737-199.050 443.737-443.737s-199.013-443.737-443.737-443.737zM765.553 485.065h-219.431v290.141c0 18.855-15.286 34.141-34.122 34.141-18.818 0-34.104-15.304-34.104-34.141v-358.385h287.657c18.836 0 34.122 15.268 34.104 34.122 0 18.836-15.304 34.122-34.104 34.122z" />
<glyph unicode="&#xe914;" glyph-name="map" d="M991.97 512.028c-17.663 0-31.998-14.335-31.998-31.998v-362.345l-255.984-102.394v336.747c0 17.663-14.335 31.998-31.998 31.998s-31.998-14.335-31.998-31.998v-336.683l-255.984 102.394v506.976l148.279-59.324c16.191-6.528 35.006 1.408 41.597 17.855 6.592 16.383-1.408 35.006-17.855 41.597l-191.54 76.667c0 0 0 0-0.064 0l-0.512 0.192c-7.616 3.072-16.127 3.072-23.743 0l-0.576-0.192c0 0 0 0-0.064 0l-319.404-127.8c-12.095-4.864-20.095-16.575-20.095-29.694v-575.964c0-10.623 5.312-20.543 14.079-26.494 5.376-3.648 11.583-5.504 17.919-5.504 4.032 0 8.063 0.768 11.903 2.304l308.077 123.192 307.501-123c0 0 0 0 0.064 0l0.576-0.256c7.616-3.072 16.127-3.072 23.743 0l0.576 0.256c0 0 0 0 0.064 0l319.404 127.736c12.031 4.928 20.031 16.639 20.031 29.758v383.976c0 17.663-14.335 31.998-31.998 31.998zM320.012 117.749l-255.984-102.394v507.040l255.984 102.394v-507.040zM799.982 832.008c-52.925 0-95.994-43.069-95.994-95.994s43.069-95.994 95.994-95.994 95.994 43.069 95.994 95.994-43.069 95.994-95.994 95.994zM799.982 704.016c-17.663 0-31.998 14.335-31.998 31.998s14.335 31.998 31.998 31.998c17.663 0 31.998-14.335 31.998-31.998s-14.335-31.998-31.998-31.998zM799.982 960c-123.512 0-223.986-100.474-223.986-223.986 0-114.937 179.701-318.508 200.179-341.355 6.080-6.72 14.719-10.623 23.807-10.623s17.727 3.904 23.807 10.623c20.479 22.847 200.179 226.418 200.179 341.355 0 123.512-100.474 223.986-223.986 223.986zM799.982 464.863c-69.884 82.875-159.99 210.099-159.99 271.151 0 88.186 71.804 159.99 159.99 159.99s159.99-71.804 159.99-159.99c0-60.988-90.106-188.276-159.99-271.151z" />
<glyph unicode="&#xe915;" glyph-name="call" d="M1006.195 247.484l-261.539 116.414c-11.477 5.109-24.914 2.523-33.688-6.477-17.375-17.836-58.391-59.664-83.492-84.313-49.93 35.047-103.281 81.125-155.539 134.414-0.141 0.141-0.281 0.281-0.422 0.422-52.492 51.477-96.891 102.953-132.227 153.305 30.281 30.57 83.609 83.203 84.273 83.859 8.883 8.766 11.414 22.117 6.344 33.531l-115.875 260.992c-5.969 13.453-20.828 20.594-35.063 16.836l-201.305-53.039c-61.094-15.547-90.914-79.516-72.047-140.75 58.227-189.016 142.039-350.156 305.664-516.016 0.055-0.055 0.109-0.109 0.164-0.164l1.047-1.047c0.055-0.055 0.109-0.109 0.164-0.164 216.195-213.297 411.234-273.391 516.016-305.672 60.625-18.672 125.031 10.398 140.75 72.008l53.563 200.719c3.797 14.25-3.32 29.148-16.789 35.141zM911.398 26.922c-0.031-0.125-0.063-0.25-0.094-0.375-7.070-27.938-37.086-38.18-64.969-29.586-106.875 32.93-285.742 88.031-491.461 290.953l-0.961 0.969c-202.938 205.734-262.383 398.711-290.961 491.461-8.594 27.914 1.672 57.906 29.586 64.961 0.094 0.023 0.188 0.047 0.281 0.078l176.742 46.555 97.102-218.703c-24.836-24.578-73.453-72.813-87.773-87.953-9.563-10.109-10.914-25.477-3.258-37.109 39.578-60.141 91.281-121.664 153.664-182.859 62.078-63.281 126.023-117.125 184.922-155.711 11.367-7.445 26.32-6.32 36.445 2.734 15.82 14.156 64.078 63.164 88.664 88.266l219.078-97.523zM512.008 898c249.227 0 451.992-201.867 451.992-449.992 0-16.562 13.43-30 29.992-30 16.57 0 30 13.438 30 30 0 281.211-229.672 509.992-511.984 509.992-16.57 0-30-13.43-30-30s13.43-30 30-30zM512.008 778c181.953 0 329.992-148.031 329.992-329.992 0-16.562 13.43-30 30-30 16.563 0 30 13.438 30 30 0 215.047-174.953 389.992-389.992 389.992-16.57 0-30-13.43-30-30 0-16.563 13.43-30 30-30zM512.008 658.008c115.789 0 209.992-94.203 209.992-210 0-16.562 13.43-30 30-30s30 13.438 30 30c0 148.875-121.117 270-269.992 270-16.57 0-30-13.438-30-30 0-16.57 13.43-30 30-30z" />
<glyph unicode="&#xe916;" glyph-name="envelope" d="M927.999 832.001h-831.999c-52.938 0-96.001-43.063-96.001-96.001v-576c0-52.938 43.063-96.001 96.001-96.001h831.999c52.938 0 96.001 43.063 96.001 96.001v576c0 52.938-43.063 96.001-96.001 96.001zM927.999 768.001c4.348 0 8.484-0.902 12.265-2.477l-428.264-371.18-428.267 371.18c3.781 1.573 7.917 2.477 12.265 2.477zM927.999 128.001h-831.999c-17.656 0-32.001 14.343-32.001 32.001v537.905l427.031-370.094c6.032-5.218 13.501-7.813 20.969-7.813s14.937 2.593 20.969 7.813l427.031 370.094v-537.907c-0.002-17.656-14.345-31.999-32.001-31.999z" />
<glyph unicode="&#xe917;" glyph-name="close" d="M73.44 9.44c5.792-5.798 13.797-9.385 22.64-9.385s16.848 3.587 22.64 9.385v0l393.28 393.28 393.44-393.28c5.794-5.794 13.799-9.378 22.64-9.378 17.683 0 32.018 14.335 32.018 32.018 0 8.841-3.584 16.846-9.378 22.64l-393.44 393.28 393.28 393.44c5.794 5.794 9.378 13.799 9.378 22.64 0 17.683-14.335 32.018-32.018 32.018-8.841 0-16.846-3.584-22.64-9.378v0l-393.28-393.44-393.44 393.28c-5.559 4.783-12.847 7.695-20.815 7.695-17.673 0-32-14.327-32-32 0-7.968 2.912-15.255 7.73-20.857l-0.035 0.042 393.28-393.44-393.28-393.44c-5.751-5.784-9.305-13.757-9.305-22.56s3.555-16.776 9.307-22.562l-0.002 0.002z" />
<glyph unicode="&#xe918;" glyph-name="envelope-1" d="M896 810.667h-768c-58.816 0-106.667-47.851-106.667-106.667v-512c0-58.816 47.851-106.667 106.667-106.667h768c58.816 0 106.667 47.851 106.667 106.667v512c0 58.816-47.851 106.667-106.667 106.667zM643.371 448.043l314.517 271.467c1.259-4.992 2.112-10.112 2.112-15.488v-512c0-5.376-0.853-10.496-2.112-15.488l-314.517 271.531zM896 768c14.272 0 27.328-4.864 37.995-12.779l-380.288-328.213c-24.171-20.971-59.243-20.949-83.456 0l-380.245 328.213c10.645 7.936 23.723 12.779 37.995 12.779zM66.112 176.512c-1.259 4.992-2.112 10.112-2.112 15.488v512c0 5.376 0.853 10.496 2.112 15.488l314.517-271.467zM128 128c-14.272 0-27.328 4.864-37.995 12.779l323.264 279.061 29.077-25.109c19.861-17.216 44.757-25.813 69.653-25.813s49.771 8.597 69.611 25.792l29.12 25.131 323.264-279.083c-10.645-7.936-23.723-12.779-37.995-12.779h-768z" />
<glyph unicode="&#xe919;" glyph-name="lock" d="M809.792-41.6h-595.584c-28.608 0-51.84 23.232-51.84 51.84v505.984c0 28.608 23.232 51.84 51.84 51.84h595.584c28.608 0 51.84-23.232 51.84-51.84v-505.984c0-28.608-23.232-51.84-51.84-51.84zM214.208 541.184c-13.76 0-24.96-11.2-24.96-24.96v-505.984c0-13.76 11.2-24.96 24.96-24.96h595.584c13.76 0 24.96 11.2 24.96 24.96v505.984c0 13.76-11.2 24.96-24.96 24.96zM766.208 541.184c-7.424 0-13.44 6.016-13.44 13.44v115.456c0 32.448-6.4 64-18.944 93.696-12.096 28.672-29.44 54.4-51.52 76.48s-47.808 39.424-76.48 51.52c-29.696 12.544-61.184 18.944-93.632 18.944s-64-6.4-93.696-18.944c-28.672-12.096-54.4-29.44-76.48-51.52s-39.424-47.808-51.52-76.48c-12.544-29.696-18.944-61.248-18.944-93.696v-115.52c0-7.424-6.016-13.44-13.44-13.44s-13.44 6.016-13.44 13.44v115.52c0 36.096 7.104 71.104 21.056 104.128 13.504 31.872 32.768 60.48 57.28 84.992s53.12 43.84 84.992 57.28c33.024 13.952 68.096 21.056 104.128 21.056 36.096 0 71.104-7.104 104.128-21.056 31.872-13.504 60.48-32.768 84.992-57.28s43.84-53.12 57.28-84.992c13.952-33.024 21.056-68.096 21.056-104.128v-115.52c0.064-7.36-5.952-13.376-13.376-13.376zM691.456 541.184c-7.424 0-13.44 6.016-13.44 13.44v115.456c0 91.456-74.432 165.824-165.824 165.824-91.456 0-165.824-74.432-165.824-165.824v-115.52c0-7.424-6.016-13.44-13.44-13.44s-13.44 6.016-13.44 13.44v115.52c0 51.456 20.032 99.904 56.448 136.256 36.416 36.416 84.8 56.448 136.256 56.448s99.904-20.032 136.256-56.448c36.416-36.416 56.448-84.8 56.448-136.256v-115.52c0-7.36-6.016-13.376-13.44-13.376zM547.968 246.72c-4.736 0-9.344 2.496-11.776 6.976-3.584 6.528-1.216 14.656 5.312 18.24 19.2 10.56 31.296 30.72 31.616 52.544 0.448 33.344-26.176 61.056-59.456 61.824-16.576 0.384-32.256-5.76-44.096-17.344s-18.368-27.072-18.368-43.648c0-22.272 12.096-42.752 31.616-53.44 6.528-3.584 8.896-11.776 5.312-18.24-3.584-6.528-11.776-8.896-18.24-5.312-28.096 15.424-45.568 44.928-45.568 76.992 0 23.872 9.408 46.208 26.496 62.848s39.616 25.536 63.488 24.96c47.936-1.152 86.4-41.088 85.696-89.088-0.448-31.488-17.92-60.544-45.568-75.712-2.048-1.024-4.224-1.6-6.464-1.6zM512.192 113.152c-27.136 0-49.216 22.080-49.216 49.216v97.792c0 7.424 6.016 13.44 13.44 13.44s13.44-6.016 13.44-13.44v-97.792c0-12.352 10.048-22.336 22.336-22.336s22.336 10.048 22.336 22.336v97.792c0 7.424 6.016 13.44 13.44 13.44s13.44-6.016 13.44-13.44v-97.792c0-27.136-22.080-49.216-49.216-49.216z" />
<glyph unicode="&#xe91a;" glyph-name="menu" d="M960 63.999h-895.999c-35.348 0-64 28.655-64 64s28.653 64 64 64h896.001c35.345 0 64-28.655 64-64-0.002-35.345-28.655-64-64.003-64zM960 384.001h-895.999c-35.348 0-64 28.653-64 63.998s28.653 64 64 64h896.001c35.345 0 64-28.653 64-64s-28.655-63.998-64.003-63.998zM960 704.001h-895.999c-35.348 0-64 28.653-64 64s28.653 64 64 64h896.001c35.345 0 64-28.653 64-64s-28.655-64-64.003-64z" />
<glyph unicode="&#xe91b;" glyph-name="high-resolution-images" d="M636.878 590.361c-14.985 0-24.976 9.99-24.976 24.976s9.99 24.976 24.976 24.976v0c14.985 0 24.976-9.99 24.976-24.976s-9.99-24.976-24.976-24.976zM761.756 48.39h-499.512c-39.961 0-77.424 14.985-104.898 44.956-27.473 27.473-44.956 64.937-44.956 104.898v499.512c0 39.961 14.985 77.424 44.956 104.898 27.473 29.971 64.937 44.956 104.898 44.956h499.512c39.961 0 77.424-14.985 104.898-44.956 27.473-27.473 44.956-64.937 44.956-104.898v-499.512c0-39.961-14.985-77.424-44.956-104.898-27.473-29.971-64.937-44.956-104.898-44.956zM262.244 797.659c-27.473 0-52.449-9.99-69.932-29.971-19.98-17.483-29.971-42.459-29.971-69.932v-499.512c0-27.473 9.99-52.449 29.971-69.932s42.459-29.971 69.932-29.971h499.512c27.473 0 52.449 9.99 69.932 29.971 19.98 19.98 29.971 44.956 29.971 69.932v499.512c0 27.473-9.99 52.449-29.971 69.932-17.483 19.98-42.459 29.971-69.932 29.971h-499.512zM679.337 255.688c-7.493 0-12.488 2.498-17.483 7.493l-209.795 209.795c-29.971 27.473-59.941 27.473-89.912 0l-207.298-207.298c-9.99-9.99-24.976-9.99-34.966 0s-9.99 24.976 0 34.966l207.298 207.298c49.951 47.454 112.39 47.454 159.844 0l207.298-207.298c9.99-9.99 9.99-24.976 0-34.966-2.498-7.493-9.99-9.99-14.985-9.99zM886.634 255.688c-7.493 0-12.488 2.498-17.483 7.493l-124.878 124.878c-29.971 27.473-59.941 27.473-89.912 0l-42.459-39.961c-9.99-9.99-24.976-9.99-34.966 0s-9.99 24.976 0 34.966l42.459 42.459c49.951 47.454 112.39 47.454 159.844 0l124.878-124.878c9.99-9.99 9.99-24.976 0-34.966-4.995-7.493-9.99-9.99-17.483-9.99z" />
<glyph unicode="&#xe91c;" glyph-name="rateing" d="M510.65 233.499l204.737 51.307 85.531-260.695-290.269 209.388zM981.832 570.46h-360.409l-110.773 335.573-110.795-335.573h-360.388l291.685-208-110.795-335.576 761.476 543.577z" />
<glyph unicode="&#xe91d;" glyph-name="royalty-free-use" d="M804.215 130.81h-584.429c-29.971 0-54.946 12.488-77.424 32.468-19.98 19.98-32.468 47.454-32.468 77.424v414.595c0 29.971 12.488 54.946 32.468 77.424 19.98 19.98 47.454 32.468 77.424 32.468h581.932c29.971 0 54.946-12.488 77.424-32.468 19.98-19.98 32.468-47.454 32.468-77.424v-417.093c0-29.971-12.488-54.946-32.468-77.424s-47.454-29.971-74.927-29.971zM219.785 715.239c-14.985 0-29.971-4.995-42.459-17.483-9.99-9.99-17.483-24.976-17.483-39.961v-417.093c0-14.985 4.995-29.971 17.483-42.459 9.99-9.99 24.976-17.483 42.459-17.483h581.932c14.985 0 29.971 4.995 39.961 17.483 9.99 9.99 17.483 24.976 17.483 42.459v414.595c0 14.985-4.995 29.971-17.483 39.961-9.99 9.99-24.976 17.483-39.961 17.483h-581.932zM367.141 298.146c-22.478 0-44.956 9.99-62.439 24.976s-24.976 37.463-24.976 62.439v124.878c0 22.478 9.99 44.956 24.976 62.439 32.468 32.468 89.912 32.468 122.38 0 17.483-17.483 24.976-37.463 24.976-62.439 0-14.985-9.99-24.976-24.976-24.976s-24.976 9.99-24.976 24.976c0 9.99-4.995 19.98-9.99 27.473-14.985 14.985-39.961 14.985-52.449 0-7.493-7.493-9.99-17.483-9.99-27.473v-124.878c0-9.99 4.995-19.98 9.99-27.473 14.985-14.985 39.961-14.985 52.449 0 7.493 7.493 9.99 17.483 9.99 27.473 0 14.985 9.99 24.976 24.976 24.976s24.976-9.99 24.976-24.976c0-22.478-9.99-44.956-24.976-62.439-14.985-14.985-37.463-24.976-59.941-24.976zM656.859 298.146c-22.478 0-44.956 9.99-62.439 24.976s-24.976 37.463-24.976 62.439v124.878c0 22.478 9.99 44.956 24.976 62.439 32.468 32.468 89.912 32.468 122.38 0 17.483-17.483 24.976-37.463 24.976-62.439 0-14.985-9.99-24.976-24.976-24.976s-24.976 9.99-24.976 24.976c0 9.99-4.995 19.98-9.99 27.473-14.985 14.985-39.961 14.985-52.449 0-7.493-7.493-9.99-17.483-9.99-27.473v-124.878c0-9.99 4.995-19.98 9.99-27.473 14.985-14.985 39.961-14.985 52.449 0 7.493 7.493 9.99 17.483 9.99 27.473 0 14.985 9.99 24.976 24.976 24.976s24.976-9.99 24.976-24.976c0-22.478-9.99-44.956-24.976-62.439s-34.966-24.976-59.941-24.976z" />
<glyph unicode="&#xe91e;" glyph-name="shape-1" d="M256 426.667h-128c-11.733 0-21.333 9.6-21.333 21.333s9.6 21.333 21.333 21.333h128c11.733 0 21.333-9.6 21.333-21.333s-9.6-21.333-21.333-21.333zM512 682.667c-11.733 0-21.333 9.6-21.333 21.333v128c0 11.733 9.6 21.333 21.333 21.333s21.333-9.6 21.333-21.333v-128c0-11.733-9.6-21.333-21.333-21.333zM332.8 605.867c-5.333 0-10.667 2.133-14.933 6.4l-93.867 93.867c-8.533 8.533-8.533 21.333 0 29.867s21.333 8.533 29.867 0l93.867-93.867c8.533-8.533 8.533-21.333 0-29.867-4.267-4.267-9.6-6.4-14.933-6.4zM691.2 605.867c-5.333 0-10.667 2.133-14.933 6.4-8.533 8.533-8.533 21.333 0 29.867l93.867 93.867c8.533 8.533 21.333 8.533 29.867 0s8.533-21.333 0-29.867l-93.867-93.867c-4.267-4.267-9.6-6.4-14.933-6.4zM238.933 153.6c-5.333 0-10.667 2.133-14.933 6.4-8.533 8.533-8.533 21.333 0 29.867l93.867 93.867c8.533 8.533 21.333 8.533 29.867 0s8.533-21.333 0-29.867l-93.867-93.867c-4.267-4.267-9.6-6.4-14.933-6.4zM640 42.667c0 0-1.067 0-1.067 0-8.533 1.067-16 6.4-19.2 14.933l-128 384c-2.133 7.467-1.067 16 5.333 21.333 5.333 5.333 13.867 7.467 21.333 5.333l384-128c8.533-3.2 13.867-9.6 14.933-19.2s-4.267-17.067-11.733-20.267l-164.267-82.133-82.133-164.267c-4.267-7.467-10.667-11.733-19.2-11.733zM546.133 413.867l98.133-294.4 61.867 124.8c2.133 4.267 5.333 7.467 9.6 9.6l124.8 61.867-294.4 98.133z" />
<glyph unicode="&#xe91f;" glyph-name="social-1" d="M711.111-24.178c-22.756 0-45.511 17.067-45.511 45.511v125.156c0 17.067 0 34.133-5.689 45.511s-11.378 28.444-22.756 34.133c-11.378 11.378-17.067 28.444-11.378 45.511s17.067 28.444 34.133 28.444c125.156 11.378 238.933 56.889 238.933 256 0 51.2-17.067 96.711-51.2 130.844-11.378 11.378-17.067 28.444-11.378 45.511 11.378 34.133 17.067 68.267 5.689 102.4-22.756-5.689-56.889-17.067-113.778-56.889-11.378-5.689-22.756-11.378-34.133-5.689-91.022 22.756-187.733 22.756-278.756 0-11.378-5.689-22.756 0-34.133 5.689-56.889 34.133-91.022 51.2-113.778 56.889 0-39.822 0-73.956 17.067-108.089 5.689-17.067 0-34.133-11.378-45.511-34.133-34.133-51.2-79.644-51.2-130.844 0-199.111 113.778-238.933 238.933-256 17.067 0 28.444-11.378 34.133-28.444s0-34.133-11.378-45.511c-11.378-11.378-17.067-22.756-22.756-34.133s-5.689-28.444-5.689-39.822v-39.822c0 0 0-5.689 0-5.689v-85.333c0-22.756-17.067-45.511-45.511-45.511s-39.822 28.444-39.822 51.2v28.444c-125.156-22.756-233.244 39.822-295.822 164.978-11.378 22.756 0 45.511 17.067 56.889 22.756 11.378 45.511 0 56.889-17.067 51.2-96.711 119.467-136.533 216.178-113.778v5.689c0 22.756 0 51.2 11.378 73.956 0 0 0 5.689 0 5.689-119.467 28.444-244.622 102.4-244.622 329.956 0 62.578 22.756 125.156 56.889 170.667-17.067 56.889-11.378 113.778 11.378 164.978 11.378 11.378 22.756 17.067 34.133 22.756 17.067 5.689 73.956 11.378 187.733-56.889 91.022 22.756 187.733 22.756 284.444 0 113.778 73.956 170.667 62.578 187.733 56.889 11.378-5.689 22.756-11.378 28.444-22.756 22.756-51.2 28.444-113.778 11.378-164.978 39.822-45.511 56.889-108.089 56.889-170.667 0-244.622-147.911-307.2-244.622-329.956 0 0 0-5.689 0-5.689 11.378-22.756 11.378-51.2 11.378-79.644v-119.467c0-22.756-22.756-45.511-45.511-45.511z" />
<glyph unicode="&#xe920;" glyph-name="social-2" d="M512-18.489c-119.467 0-233.244 45.511-312.889 119.467 0 0-5.689 5.689-5.689 5.689-91.022 85.333-147.911 204.8-147.911 341.333 0 199.111 125.156 369.778 301.511 438.044 0 0 5.689 0 5.689 0 45.511 22.756 102.4 28.444 159.289 28.444 130.844 0 244.622-51.2 329.956-136.533 0 0 5.689-5.689 5.689-5.689 79.644-85.333 130.844-199.111 130.844-324.267 0-11.378 0-22.756 0-39.822 0 0 0 0 0 0-11.378-159.289-108.089-301.511-244.622-375.467 0 0-5.689 0-5.689-5.689-62.578-28.444-136.533-45.511-216.178-45.511zM278.756 146.489c62.578-51.2 142.222-85.333 233.244-85.333 51.2 0 102.4 11.378 153.6 28.444-17.067 91.022-45.511 187.733-79.644 273.067-136.533-28.444-250.311-113.778-307.2-216.178zM665.6 391.111c28.444-79.644 56.889-164.978 73.956-250.311 79.644 56.889 130.844 142.222 147.911 238.933-68.267 17.067-147.911 17.067-221.867 11.378zM130.844 453.689c0 0 0-5.689 0-5.689 0-91.022 34.133-176.356 85.333-238.933 68.267 113.778 193.422 199.111 335.644 238.933-11.378 22.756-17.067 39.822-28.444 56.889-153.6-45.511-312.889-51.2-392.533-51.2zM762.311 482.133c45.511 0 91.022-5.689 136.533-11.378-5.689 79.644-34.133 153.6-79.644 210.489-56.889-62.578-130.844-108.089-216.178-142.222 11.378-22.756 22.756-45.511 28.444-68.267 45.511 5.689 85.333 11.378 130.844 11.378zM347.022 795.022c-102.4-51.2-182.044-142.222-210.489-256 79.644 0 210.489 5.689 347.022 45.511-39.822 68.267-85.333 142.222-136.533 210.489zM432.356 823.467c51.2-68.267 96.711-142.222 130.844-210.489 73.956 28.444 142.222 73.956 193.422 130.844-68.267 56.889-153.6 91.022-244.622 91.022-28.444 0-51.2-5.689-79.644-11.378z" />
<glyph unicode="&#xe921;" glyph-name="social-3" d="M682.667 21.333h-341.333c-68.267 0-130.844 28.444-182.044 73.956s-73.956 113.778-73.956 182.044v341.333c0 68.267 28.444 130.844 73.956 182.044 51.2 45.511 113.778 73.956 182.044 73.956h341.333c68.267 0 130.844-28.444 182.044-73.956 51.2-51.2 73.956-113.778 73.956-182.044v-341.333c0-68.267-28.444-130.844-73.956-182.044s-113.778-73.956-182.044-73.956zM341.333 789.333c-45.511 0-91.022-17.067-119.467-51.2-34.133-28.444-51.2-73.956-51.2-119.467v-341.333c0-45.511 17.067-91.022 51.2-119.467 28.444-34.133 73.956-51.2 119.467-51.2h341.333c45.511 0 91.022 17.067 119.467 51.2s51.2 73.956 51.2 119.467v341.333c0 45.511-17.067 91.022-51.2 119.467-28.444 34.133-73.956 51.2-119.467 51.2h-341.333zM466.489 21.333c-22.756 0-45.511 17.067-45.511 45.511v295.822h-34.133c-28.444 0-45.511 17.067-45.511 39.822s17.067 45.511 45.511 45.511h45.511c0 91.022 22.756 216.178 216.178 216.178 17.067 0 34.133-22.756 34.133-45.511s-17.067-45.511-45.511-45.511c-108.089 0-125.156-34.133-125.156-125.156h125.156c28.444 0 45.511-17.067 45.511-45.511s-17.067-45.511-45.511-45.511h-125.156v-295.822c0-22.756-17.067-39.822-45.511-39.822z" />
<glyph unicode="&#xe922;" glyph-name="social-4" d="M352.711 21.333c-108.089 0-221.867 28.444-329.956 91.022-17.067 11.378-28.444 28.444-22.756 51.2 5.689 17.067 22.756 34.133 45.511 28.444 73.956 0 142.222 11.378 210.489 39.822-324.267 199.111-164.978 568.889-164.978 574.578 5.689 11.378 17.067 22.756 34.133 22.756s28.444-5.689 39.822-17.067c39.822-56.889 91.022-102.4 153.6-130.844 45.511-22.756 102.4-39.822 153.6-45.511-5.689 51.2 11.378 96.711 39.822 136.533s62.578 68.267 108.089 85.333c45.511 17.067 91.022 22.756 142.222 5.689 34.133-11.378 68.267-28.444 96.711-51.2 34.133 17.067 85.333 39.822 102.4 51.2s34.133 5.689 51.2-5.689c11.378-11.378 17.067-28.444 11.378-45.511-5.689-11.378-39.822-102.4-85.333-153.6 0-5.689 0-17.067 0-22.756 0-233.244-102.4-426.667-284.444-534.756-91.022-51.2-193.422-79.644-301.511-79.644zM210.489 129.422c136.533-34.133 278.756-17.067 398.222 51.2 153.6 91.022 244.622 256 244.622 460.8 0 11.378 0 17.067 0 28.444s0 28.444 11.378 39.822c5.689 5.689 17.067 17.067 22.756 28.444-11.378-5.689-17.067-5.689-22.756-11.378-17.067-5.689-34.133 0-45.511 11.378-22.756 22.756-51.2 39.822-79.644 45.511s-62.578 5.689-91.022-5.689c-28.444-11.378-51.2-28.444-68.267-56.889-17.067-22.756-28.444-56.889-28.444-85.333v-45.511c0-22.756-17.067-39.822-39.822-39.822-79.644 0-164.978 17.067-238.933 51.2-45.511 28.444-91.022 62.578-130.844 102.4-22.756-108.089-34.133-318.578 216.178-426.667 11.378-5.689 22.756-17.067 22.756-34.133s-5.689-28.444-17.067-39.822c-45.511-34.133-96.711-62.578-153.6-73.956z" />
<glyph unicode="&#xe923;" glyph-name="social-5" d="M512 231.822c-56.889 0-108.089 22.756-153.6 62.578s-62.578 96.711-62.578 153.6 22.756 108.089 62.578 153.6c79.644 79.644 221.867 79.644 301.511 0 45.511-45.511 68.267-96.711 68.267-153.6s-22.756-108.089-62.578-153.6-96.711-62.578-153.6-62.578zM512 573.156c-34.133 0-68.267-11.378-91.022-34.133s-34.133-56.889-34.133-91.022 11.378-68.267 39.822-91.022c45.511-45.511 130.844-45.511 182.044 0 22.756 22.756 39.822 56.889 39.822 91.022s-22.756 68.267-45.511 91.022c-22.756 22.756-56.889 34.133-91.022 34.133zM682.667 21.333h-341.333c-68.267 0-130.844 28.444-182.044 73.956s-73.956 113.778-73.956 182.044v341.333c0 68.267 28.444 130.844 73.956 182.044 51.2 45.511 113.778 73.956 182.044 73.956h341.333c68.267 0 130.844-28.444 182.044-73.956 51.2-51.2 73.956-113.778 73.956-182.044v-341.333c0-68.267-28.444-130.844-73.956-182.044s-113.778-73.956-182.044-73.956zM341.333 789.333c-45.511 0-91.022-17.067-119.467-51.2-34.133-28.444-51.2-73.956-51.2-119.467v-341.333c0-45.511 17.067-91.022 51.2-119.467 28.444-34.133 73.956-51.2 119.467-51.2h341.333c45.511 0 91.022 17.067 119.467 51.2s51.2 73.956 51.2 119.467v341.333c0 45.511-17.067 91.022-51.2 119.467-28.444 34.133-73.956 51.2-119.467 51.2h-341.333zM745.244 641.422c-11.378 0-17.067 5.689-28.444 11.378-17.067 17.067-22.756 39.822-5.689 62.578v0c17.067 17.067 39.822 22.756 62.578 5.689s22.756-45.511 5.689-68.267c-5.689-5.689-22.756-11.378-34.133-11.378z" />
<glyph unicode="&#xe924;" glyph-name="unlimited-image-creation" d="M128 166.4c-5.12 0-10.24 2.56-15.36 5.12-5.12 5.12-10.24 12.8-10.24 20.48v340.48c0 7.68 5.12 15.36 10.24 20.48 7.68 5.12 15.36 5.12 23.040 2.56l299.52-102.4c10.24-2.56 17.92-12.8 17.92-23.040v-110.080c0-10.24-5.12-20.48-15.36-23.040l-299.52-128c-2.56-2.56-7.68-2.56-10.24-2.56zM153.6 496.64v-266.24l248.32 104.96v76.8l-248.32 84.48zM512 550.4c-2.56 0-5.12 0-7.68 2.56l-384 128c-10.24 2.56-17.92 12.8-17.92 23.040s7.68 20.48 17.92 23.040l384 128c5.12 2.56 10.24 2.56 15.36 0l384-128c10.24-2.56 17.92-12.8 17.92-23.040s-7.68-20.48-17.92-23.040l-384-128c-2.56-2.56-5.12-2.56-7.68-2.56zM209.92 704l302.080-99.84 302.080 99.84-302.080 99.84-302.080-99.84zM596.48 38.4c-5.12 0-10.24 2.56-15.36 5.12-7.68 5.12-10.24 12.8-10.24 20.48v371.2c0 10.24 7.68 20.48 17.92 25.6l299.52 97.28c7.68 2.56 15.36 0 23.040-2.56 7.68-5.12 10.24-12.8 10.24-20.48v-343.040c0-10.24-5.12-20.48-15.36-23.040l-299.52-128c-2.56-2.56-5.12-2.56-10.24-2.56zM622.080 417.28v-314.88l248.32 104.96v291.84l-248.32-81.92z" />
</font>
</defs>
</svg>
